<svg width="22" height="22" viewBox="0 0 22 22" fill="none" xmlns="http://www.w3.org/2000/svg">
<path opacity="0.5" d="M2.17157 17.8284C3.34315 19 5.22876 19 9 19L14.75 18.9944C17.3859 18.9668 18.8541 18.8028 19.8284 17.8285C21 16.6569 21 14.7713 21 11C21 7.22879 21 5.34317 19.8284 4.1716C18.8541 3.19727 17.3738 3.02762 14.7379 3H9C5.22876 3 3.34315 3 2.17157 4.17157C1 5.34315 1 7.22876 1 11C1 14.7712 1 16.6569 2.17157 17.8284Z" fill="#1C274C"/>
<path d="M12 11C12 10.4477 11.5523 10 11 10C10.4477 10 10 10.4477 10 11C10 11.5523 10.4477 12 11 12C11.5523 12 12 11.5523 12 11Z" fill="#1C274C"/>
<path d="M7 12C7.55228 12 8 11.5523 8 11C8 10.4477 7.55228 10 7 10C6.44772 10 6 10.4477 6 11C6 11.5523 6.44772 12 7 12Z" fill="#1C274C"/>
<path fill-rule="evenodd" clip-rule="evenodd" d="M14 0.25C14.4142 0.25 14.75 0.58579 14.75 1V3.00559V18.9944V21C14.75 21.4142 14.4142 21.75 14 21.75C13.5858 21.75 13.25 21.4142 13.25 21V1C13.25 0.58579 13.5858 0.25 14 0.25Z" fill="#1C274C"/>
</svg>
